<svg id="Capa_1" enable-background="new 0 0 512 512" height="512" viewBox="0 0 512 512" width="512" xmlns="http://www.w3.org/2000/svg"><path d="m271.965 504.5h-31.931v-481.035c0-8.817 7.148-15.965 15.965-15.965 8.818 0 15.965 7.148 15.965 15.965v481.035z" fill="#c5d3dd"/><path d="m110.078 310.736v-249.912c0-11.579 9.387-20.966 20.966-20.966h249.912c11.579 0 20.966 9.387 20.966 20.966v249.913c0 11.579-9.387 20.966-20.966 20.966h-249.912c-11.579-.001-20.966-9.388-20.966-20.967z" fill="#fff4f1"/><path d="m380.956 39.858h-30c11.579 0 20.966 9.387 20.966 20.966v249.913c0 11.579-9.387 20.966-20.966 20.966h30c11.579 0 20.966-9.387 20.966-20.966v-249.913c0-11.58-9.387-20.966-20.966-20.966z" fill="#f0e5e3"/><path d="m366.858 303.495h-221.716c-3.787 0-6.857-3.07-6.857-6.857v-221.717c0-3.787 3.07-6.857 6.857-6.857h221.717c3.787 0 6.857 3.07 6.857 6.857v221.717c-.001 3.787-3.071 6.857-6.858 6.857z" fill="#60b7ff"/><path d="m366.858 68.064h-30c3.787 0 6.857 3.07 6.857 6.857v221.717c0 3.787-3.07 6.857-6.857 6.857h30c3.787 0 6.857-3.07 6.857-6.857v-221.717c0-3.787-3.07-6.857-6.857-6.857z" fill="#26a6fe"/><path d="m211.442 114.145c0-5.701 5.245-10.718 13.227-10.718h47.207c30.103 0 53.82 14.139 53.82 52.452v1.14c0 38.313-24.63 52.908-56.1 52.908h-22.577v49.259c0 7.298-8.894 10.947-17.788 10.947s-17.788-3.649-17.788-10.947v-145.041zm35.576 20.297v48.119h22.577c12.771 0 20.524-7.298 20.524-22.805v-2.508c0-15.508-7.754-22.806-20.524-22.806z" fill="#fff4f1"/><path d="m315.914 450.359h-119.828c-5.403 0-9.782-4.38-9.782-9.782v-63.826c0-5.403 4.38-9.782 9.782-9.782h119.828c5.403 0 9.782 4.38 9.782 9.782v63.826c0 5.402-4.379 9.782-9.782 9.782z" fill="#26a6fe"/><path d="m315.914 366.968h-30c5.403 0 9.782 4.38 9.782 9.782v63.826c0 5.403-4.38 9.782-9.782 9.782h30c5.403 0 9.782-4.38 9.782-9.782v-63.826c0-5.402-4.379-9.782-9.782-9.782z" fill="#0593fc"/><circle cx="163.142" cy="91.701" r="7.5"/><circle cx="350.638" cy="91.701" r="7.5"/><circle cx="163.142" cy="278.472" r="7.5"/><circle cx="350.638" cy="278.472" r="7.5"/><path d="m380.956 32.358h-101.491v-8.893c0-12.939-10.526-23.465-23.465-23.465s-23.465 10.526-23.465 23.465v8.893h-101.491c-15.696 0-28.466 12.77-28.466 28.466v249.913c0 15.696 12.77 28.466 28.466 28.466h101.491v20.266h-36.449c-9.529 0-17.282 7.753-17.282 17.282v63.826c0 8.657 6.397 15.847 14.712 17.092.543.125 1.107.19 1.688.19h.882c4.142 0 7.5-3.358 7.5-7.5s-3.358-7.5-7.5-7.5c-1.258 0-2.282-1.024-2.282-2.283v-63.826c0-1.258 1.024-2.282 2.282-2.282h119.828c1.258 0 2.282 1.024 2.282 2.282v63.826c0 1.259-1.024 2.283-2.282 2.283h-90.71c-4.142 0-7.5 3.358-7.5 7.5s3.358 7.5 7.5 7.5h7.331v46.641c0 4.142 3.358 7.5 7.5 7.5h31.931c4.142 0 7.5-3.358 7.5-7.5v-46.641h36.449c9.529 0 17.282-7.753 17.282-17.283v-63.826c0-9.529-7.753-17.282-17.282-17.282h-36.449v-20.266h6.34c4.142 0 7.5-3.358 7.5-7.5s-3.358-7.5-7.5-7.5h-154.762c-7.425 0-13.466-6.04-13.466-13.466v-249.912c0-7.425 6.041-13.466 13.466-13.466h249.912c7.425 0 13.466 6.041 13.466 13.466v249.913c0 7.425-6.041 13.466-13.466 13.466h-65.151c-4.142 0-7.5 3.358-7.5 7.5s3.358 7.5 7.5 7.5h65.151c15.696 0 28.466-12.77 28.466-28.466v-249.913c0-15.697-12.77-28.466-28.466-28.466zm-116.491 464.642h-16.931v-39.141h16.931zm0-137.532h-16.931v-20.266h16.931zm-16.93-336.003c0-4.668 3.797-8.465 8.465-8.465s8.465 3.797 8.465 8.465v8.893h-16.931v-8.893z"/><path d="m204.608 60.564h-59.466c-7.917 0-14.357 6.441-14.357 14.357v221.717c0 7.916 6.44 14.357 14.357 14.357h221.717c7.917 0 14.357-6.44 14.357-14.357v-221.717c0-7.917-6.44-14.357-14.357-14.357h-132.251c-4.142 0-7.5 3.358-7.5 7.5s3.358 7.5 7.5 7.5h131.607v220.431h-220.43v-220.431h58.823c4.142 0 7.5-3.358 7.5-7.5s-3.358-7.5-7.5-7.5z"/><path d="m247.019 190.061h22.577c17.548 0 28.024-11.329 28.024-30.305v-2.508c0-18.976-10.477-30.306-28.024-30.306h-22.577c-4.142 0-7.5 3.358-7.5 7.5v48.119c0 4.142 3.357 7.5 7.5 7.5zm7.5-48.119h15.077c6.44 0 13.024 1.818 13.024 15.306v2.508c0 13.487-6.584 15.305-13.024 15.305h-15.077z"/><path d="m203.942 114.145v145.041c0 10.861 10.399 18.446 25.288 18.446s25.288-7.585 25.288-18.446v-41.76h15.077c40.419 0 63.601-22.018 63.601-60.408v-1.14c0-38.1-22.351-59.952-61.32-59.952h-47.207c-11.622.001-20.727 8.003-20.727 18.219zm15 0c0-1.548 2.189-3.218 5.727-3.218h47.207c30.736 0 46.32 15.124 46.32 44.952v1.14c0 15.746-4.562 27.544-13.56 35.067-8.09 6.765-20.207 10.34-35.041 10.34h-22.577c-4.142 0-7.5 3.358-7.5 7.5v49.26c0 1.183-4.006 3.446-10.288 3.446s-10.288-2.263-10.288-3.446z"/><path d="m226.575 404.935h58.85c4.142 0 7.5-3.358 7.5-7.5s-3.358-7.5-7.5-7.5h-58.85c-4.142 0-7.5 3.358-7.5 7.5s3.358 7.5 7.5 7.5z"/><path d="m226.575 427.392h58.85c4.142 0 7.5-3.358 7.5-7.5s-3.358-7.5-7.5-7.5h-58.85c-4.142 0-7.5 3.358-7.5 7.5s3.358 7.5 7.5 7.5z"/></svg>